<?xml version="1.0" encoding="utf-8"?>
<!-- Generator: Adobe Illustrator 16.0.0, SVG Export Plug-In . SVG Version: 6.00 Build 0)  -->
<!DOCTYPE svg PUBLIC "-//W3C//DTD SVG 1.1//EN" "http://www.w3.org/Graphics/SVG/1.1/DTD/svg11.dtd">
<svg version="1.1" id="Layer_1" xmlns="http://www.w3.org/2000/svg" xmlns:xlink="http://www.w3.org/1999/xlink" x="0px" y="0px"
	 width="450px" height="162px" viewBox="0 0 450 162" enable-background="new 0 0 450 162" xml:space="preserve">
<rect display="none" width="450" height="161.75"/>
<g>
	<path d="M101.994,34.75l-0.089,0.316h-0.031l-21.355,76.059c-0.192,0.686-0.776,1.225-1.743,1.607
		c-0.972,0.388-2.402,0.578-4.295,0.578c-1.549,0-2.831-0.19-3.84-0.58c-1.013-0.389-1.418-0.924-1.225-1.614l6.274-22.345h-0.666
		l0.142-0.508H28.125L21,113.643c0.15,0.211,0.275,0.438,0.371,0.682h0.135c3.744,3.246,8.764,6.632,15.292,8.878
		c4.898,1.687,9.681,2.396,14.086,2.552l-0.013,0.044h71.919h0.559l0.416-1.048l25.27-89.997L101.994,34.75L101.994,34.75z"/>
	<polygon points="203.87,34.75 178.307,125.795 130.718,125.795 156.282,34.75 	"/>
	<path d="M211.398,34.75h47.475c14.996,0,26.193,0.581,33.593,1.742c7.396,1.161,12.974,3.512,16.729,7.053
		s4.525,9.243,2.316,17.112c-1.494,5.319-4.215,9.028-8.155,11.127c-3.939,2.098-11.01,3.709-21.191,4.833
		c10.65,1.236,17.536,3.291,20.648,6.16c3.109,2.871,3.839,7.271,2.172,13.195l-2.367,8.438c-1.729,6.15-4.422,10.71-8.076,13.674
		c-3.659,2.965-8.729,4.989-15.219,6.077c-6.48,1.088-19.297,1.631-38.438,1.631h-55.048L211.398,34.75z M254.613,50.327
		l-5.688,20.245c2.047-0.037,3.637-0.057,4.766-0.057c4.674,0,7.808-0.57,9.412-1.716c1.602-1.143,3.16-4.414,4.676-9.813
		c0.801-2.848,0.834-4.844,0.101-5.988c-0.735-1.144-1.907-1.864-3.519-2.165C262.751,50.533,259.502,50.364,254.613,50.327
		 M244.95,84.743l-7.152,25.476c6.738-0.113,11.162-0.637,13.272-1.574c2.104-0.938,3.678-3.244,4.709-6.916l2.385-8.494
		c1.094-3.896,0.929-6.26-0.496-7.084C256.24,85.325,252.001,84.855,244.95,84.743"/>
	<path d="M328.661,34.75h47.476c14.994,0,26.191,0.581,33.594,1.742c7.396,1.161,12.976,3.512,16.728,7.053
		c3.755,3.541,4.526,9.243,2.317,17.112c-1.494,5.319-4.217,9.028-8.155,11.127c-3.942,2.098-11.008,3.709-21.194,4.833
		c10.653,1.236,17.538,3.291,20.651,6.16c3.108,2.871,3.837,7.271,2.173,13.195l-2.369,8.438c-1.729,6.15-4.421,10.71-8.078,13.674
		c-3.659,2.965-8.729,4.989-15.215,6.077s-19.298,1.631-38.438,1.631H303.1L328.661,34.75z M371.877,50.327l-5.686,20.245
		c2.045-0.037,3.634-0.057,4.763-0.057c4.673,0,7.809-0.57,9.412-1.716c1.602-1.143,3.161-4.414,4.677-9.813
		c0.8-2.848,0.833-4.844,0.101-5.988c-0.733-1.144-1.906-1.864-3.519-2.165C380.013,50.533,376.764,50.364,371.877,50.327
		 M362.213,84.743l-7.152,25.476c6.737-0.113,11.161-0.637,13.271-1.574c2.107-0.938,3.679-3.244,4.71-6.916l2.385-8.494
		c1.098-3.896,0.932-6.26-0.496-7.084C373.504,85.325,369.264,84.855,362.213,84.743"/>
</g>
<rect display="none" fill="none" stroke="#000000" stroke-width="24" stroke-miterlimit="10" width="450" height="162"/>
</svg>
